<?xml version="1.0" encoding="UTF-8" standalone="no"?>
<svg
   xmlns:dc="http://purl.org/dc/elements/1.1/"
   xmlns:cc="http://creativecommons.org/ns#"
   xmlns:rdf="http://www.w3.org/1999/02/22-rdf-syntax-ns#"
   xmlns:svg="http://www.w3.org/2000/svg"
   xmlns="http://www.w3.org/2000/svg"
   xmlns:sodipodi="http://sodipodi.sourceforge.net/DTD/sodipodi-0.dtd"
   xmlns:inkscape="http://www.inkscape.org/namespaces/inkscape"
   version="1.1"
   id="svg1"
   width="16"
   height="16"
   viewBox="0 0 16 16"
   sodipodi:docname="fill-brush.svg"
   inkscape:version="1.0.1 (0767f8302a, 2020-10-17)">
  <metadata
     id="metadata3882">
    <rdf:RDF>
      <cc:Work
         rdf:about="">
        <dc:format>image/svg+xml</dc:format>
        <dc:type
           rdf:resource="http://purl.org/dc/dcmitype/StillImage" />
        <dc:title></dc:title>
      </cc:Work>
    </rdf:RDF>
  </metadata>
  <defs
     id="defs3880" />
  <sodipodi:namedview
     objecttolerance="10"
     gridtolerance="10"
     guidetolerance="10"
     id="namedview"
     showgrid="true"
     inkscape:zoom="38.41879"
     inkscape:cx="13.324025"
     inkscape:cy="5.9935811"
     inkscape:window-width="1864"
     inkscape:window-height="1016"
     inkscape:window-x="56"
     inkscape:window-y="27"
     inkscape:window-maximized="1"
     inkscape:current-layer="dialog-fill-and-stroke"
     inkscape:document-rotation="0">
    <inkscape:grid
       type="xygrid"
       id="grid" />
  </sodipodi:namedview>
  <g
     transform="matrix(1,0,0,0.999998,-135,-527.36122)"
     inkscape:label="00055"
     id="dialog-fill-and-stroke">
    <g
       transform="translate(73.9998,350.3404)"
       id="g63382"
       inkscape:label="stock-tool-paintbrush">
      <path
         inkscape:connector-curvature="0"
         id="rect63349"
         d="m 61.000198,177.0217 h 16 v 15.97829 h -16 z"
         style="opacity:0;fill:none" />
      <g
         transform="matrix(0.8746234,0,0,0.8917833,86.92697,167.5616)"
         id="g9272">
        <path
           id="path9274"
           d="m -28.5,27.5711 c 3.11114,0.0011 2.79359,-3.32336 4.30417,-4.24898 1.75047,-1.07262 3.28449,0.25648 3.59075,1.35029 0.38645,1.38019 -0.33782,2.50869 -1.30032,3.11895 -1.84636,1.17068 -6.30004,0.89871 -6.5946,-0.22026 z"
           inkscape:connector-curvature="0" />
      </g>
      <path
         inkscape:connector-curvature="0"
         id="path9264"
         d="M 76.41652,178.3567 C 76.72489,177.6909 76.2528,177.4355 75.6841,178 c -3.99874,3.9688 -4.6839,4 -8.42383,9.1497 1.00355,0.0377 1.86506,0.6864 2.3125,1.6228 4.42743,-4.7725 4.92644,-7.3334 6.84375,-10.4158 z"
         style="opacity:1" />
    </g>
  </g>
</svg>
