<?xml version="1.0" encoding="UTF-8"?>
<svg width="16" height="16" version="1.1" viewBox="0 0 16 16" xmlns="http://www.w3.org/2000/svg" xmlns:cc="http://creativecommons.org/ns#" xmlns:dc="http://purl.org/dc/elements/1.1/" xmlns:rdf="http://www.w3.org/1999/02/22-rdf-syntax-ns#">
 <metadata>
  <rdf:RDF>
   <cc:Work rdf:about="">
    <dc:format>image/svg+xml</dc:format>
    <dc:type rdf:resource="http://purl.org/dc/dcmitype/StillImage"/>
    <dc:title/>
   </cc:Work>
  </rdf:RDF>
 </metadata>
 <g id="dialog-fill-and-stroke" transform="matrix(1 0 0 1 -135 -527.36)">
  <g transform="matrix(-.55007 0 0 .55008 149.11 529.25)">
   <g transform="translate(3.6359 12.726)">
    <path d="m8.8795-7.1181 2.917 2.9183-15.866 15.857-2.917-2.9183zm5.6792-0.68989-2.0736-2.0749c-0.64823-0.64823-0.94762 0.10153-1.5945 0.74846-0.64563 0.64563-1.3954 0.94501-0.74716 1.5932l2.0749 2.0749c0.64823 0.64823 0.94632-0.10413 1.5932-0.74976 0.64303-0.64693 1.3954-0.94501 0.74716-1.5919zm1.9017 2.6736-0.89555 1.1897-1.4878 0.065084 1.1923 0.89685 0.06508 1.4774 0.89164-1.1819 1.4904-0.066385-1.1897-0.89425zm5.4683-4.8839-2.6827 0.11845-1.6037 2.1282-0.11455-2.6619-2.1452-1.6141 2.6775-0.11715 1.6089-2.1426 0.11975 2.6775zm-1.027-0.31761-1.4696-1.1051-0.0807-1.8354-1.1064 1.4683-1.8328 0.0807 1.4722 1.1077 0.0807 1.8197 1.0934-1.4566zm-9.1469-0.7016 0.94632-1.2574 1.5841-0.06899-1.2639-0.95022-0.07159-1.5802-0.95022 1.2639-1.5789 0.06899 1.2665 0.95412z" fill="auto" stroke-width="1.3017"/>
   </g>
  </g>
 </g>
</svg>
