<?xml version="1.0" encoding="UTF-8"?>
<svg width="16" height="16" version="1.1" viewBox="0 0 16 16" xmlns="http://www.w3.org/2000/svg" xmlns:cc="http://creativecommons.org/ns#" xmlns:dc="http://purl.org/dc/elements/1.1/" xmlns:rdf="http://www.w3.org/1999/02/22-rdf-syntax-ns#">
 <metadata>
  <rdf:RDF>
   <cc:Work rdf:about="">
    <dc:format>image/svg+xml</dc:format>
    <dc:type rdf:resource="http://purl.org/dc/dcmitype/StillImage"/>
    <dc:title/>
   </cc:Work>
  </rdf:RDF>
 </metadata>
 <path d="m5.8011 14.575c-0.02588-0.02583-0.047041-0.06751-0.047041-0.09259 0-0.02505 0.22774-0.43106 0.5061-0.90221 0.27835-0.47116 0.49769-0.87025 0.48742-0.88688-0.010301-0.01663-0.084461-0.0302-0.16486-0.0302-0.38806 0-0.93501-0.2387-1.2444-0.54309-0.26965-0.26526-0.38737-0.54075-0.38737-0.9065 0-0.36698 0.12627-0.65022 0.4069-0.91271 0.37102-0.34705 0.88517-0.53689 1.4541-0.53689 0.95164 0 1.6855 0.50422 1.8404 1.2646 0.14036 0.68871-0.38965 1.3409-1.2895 1.5868l-0.24656 0.067343-0.53418 0.90518c-0.29379 0.49785-0.55837 0.9342-0.58794 0.96967-0.063639 0.07632-0.12834 0.08218-0.19306 0.01748zm1.5936-2.26c0.69688-0.2169 1.0971-0.73491 0.98494-1.275-0.11477-0.55287-0.68979-0.95024-1.4355-0.99204-0.71603-0.04011-1.3204 0.23292-1.6115 0.72801-0.13975 0.23774-0.14896 0.60777-0.02116 0.8506 0.15983 0.30371 0.55253 0.59502 0.95193 0.70616 0.27849 0.07749 0.8543 0.06844 1.1313-0.01771zm-1.1248-0.95462-0.39211-0.75418 0.2418-0.11754c0.22589-0.1098 0.27151-0.11754 0.69318-0.11754 0.43065 0 0.46333 0.0063 0.71166 0.12813 0.29788 0.14665 0.47777 0.33022 0.54566 0.55684 0.13326 0.44476-0.31668 0.90829-0.98726 1.0171-0.43942 0.07133-0.37662 0.12636-0.81293-0.71282zm2.6429-0.54689c-0.1204-0.41297-0.49971-0.8587-0.92251-1.084-0.66999-0.3571-1.6353-0.36852-2.3087-0.027313l-0.1976 0.10013-0.33015-0.63627c-0.18159-0.34995-0.82817-1.6147-1.4369-2.8107-0.60869-1.1959-1.2479-2.4518-1.4206-2.7909-0.261-0.51267-0.30559-0.62652-0.26466-0.67583 0.02706-0.03262 0.07418-0.059308 0.10466-0.059308 0.030522 0 1.7356 0.74928 3.7892 1.6651 2.0536 0.9158 3.7428 1.6651 3.7539 1.6651 0.01109 0 0.93457-1.0754 2.0522-2.3899 1.2505-1.4707 2.0583-2.3899 2.1004-2.3899 0.0376 0 0.0866 0.034102 0.10891 0.075775 0.05027 0.09398 0.05578 7.7536 0.0055 7.8327-0.02454 0.0387-4.1142 1.4662-4.8885 1.7062-0.075517 0.02341-0.0916 0.0031-0.14535-0.18097z" stroke-width=".039178"/>
</svg>
